<svg width="104" height="24" viewBox="0 0 104 24" fill="none" xmlns="http://www.w3.org/2000/svg">
<g clip-path="url(#clip0_1398_1085)">
<path d="M23.1127 10.3623L16.3294 8.46924C15.9351 8.35093 15.6195 8.03543 15.5012 7.64105L13.6082 0.857769C13.2927 -0.285923 11.6364 -0.285923 11.3209 0.857769L9.42785 7.64105C9.30955 8.03543 8.99404 8.35093 8.59966 8.46924L1.85582 10.3623C0.712123 10.6778 0.712123 12.3341 1.85582 12.6497L8.63911 14.5427C9.03347 14.661 9.34898 14.9765 9.4673 15.3708L11.3603 22.1542C11.6758 23.2978 13.3322 23.2978 13.6477 22.1542L15.5407 15.3708C15.659 14.9765 15.9745 14.661 16.3689 14.5427L23.1522 12.6497C24.2564 12.2947 24.2564 10.6778 23.1127 10.3623Z" fill="#D8B795"/>
</g>
<g clip-path="url(#clip1_1398_1085)">
<path d="M63.1127 10.3623L56.3294 8.46924C55.9351 8.35093 55.6195 8.03543 55.5012 7.64105L53.6082 0.857769C53.2927 -0.285923 51.6364 -0.285923 51.3209 0.857769L49.4279 7.64105C49.3095 8.03543 48.994 8.35093 48.5997 8.46924L41.8558 10.3623C40.7121 10.6778 40.7121 12.3341 41.8558 12.6497L48.6391 14.5427C49.0335 14.661 49.349 14.9765 49.4673 15.3708L51.3603 22.1542C51.6758 23.2978 53.3322 23.2978 53.6477 22.1542L55.5407 15.3708C55.659 14.9765 55.9745 14.661 56.3689 14.5427L63.1522 12.6497C64.2564 12.2947 64.2564 10.6778 63.1127 10.3623Z" fill="#D8B795"/>
</g>
<g clip-path="url(#clip2_1398_1085)">
<path d="M103.113 10.3623L96.3294 8.46924C95.9351 8.35093 95.6195 8.03543 95.5012 7.64105L93.6082 0.857769C93.2927 -0.285923 91.6364 -0.285923 91.3209 0.857769L89.4279 7.64105C89.3095 8.03543 88.994 8.35093 88.5997 8.46924L81.8558 10.3623C80.7121 10.6778 80.7121 12.3341 81.8558 12.6497L88.6391 14.5427C89.0335 14.661 89.349 14.9765 89.4673 15.3708L91.3603 22.1542C91.6758 23.2978 93.3322 23.2978 93.6477 22.1542L95.5407 15.3708C95.659 14.9765 95.9745 14.661 96.3689 14.5427L103.152 12.6497C104.256 12.2947 104.256 10.6778 103.113 10.3623Z" fill="#D8B795"/>
</g>
<defs>
<clipPath id="clip0_1398_1085">
<rect width="24" height="24" fill="white"/>
</clipPath>
<clipPath id="clip1_1398_1085">
<rect width="24" height="24" fill="white" transform="translate(40)"/>
</clipPath>
<clipPath id="clip2_1398_1085">
<rect width="24" height="24" fill="white" transform="translate(80)"/>
</clipPath>
</defs>
</svg>
