<svg width="1680" height="48" viewBox="0 0 1680 48" fill="none" xmlns="http://www.w3.org/2000/svg">
<g clip-path="url(#clip0_1806_1143)">
<mask id="path-1-inside-1_1806_1143" fill="white">
<path d="M0 0H40V28C40 39.0457 31.0457 48 20 48V48C8.95431 48 0 39.0457 0 28V0Z"/>
</mask>
<path d="M-1 -2H41L39 2H1L-1 -2ZM41 29C41 40.598 31.598 50 20 50C8.40202 50 -1 40.598 -1 29L1 28C1 37.9411 9.50659 46 20 46C30.4934 46 39 37.9411 39 28L41 29ZM20 50C8.40202 50 -1 40.598 -1 29V-2L1 2V28C1 37.9411 9.50659 46 20 46V50ZM41 -2V29C41 40.598 31.598 50 20 50V46C30.4934 46 39 37.9411 39 28V2L41 -2Z" fill="#7BD6D0" mask="url(#path-1-inside-1_1806_1143)"/>
<mask id="path-3-inside-2_1806_1143" fill="white">
<path d="M40 0H80V28C80 39.0457 71.0457 48 60 48V48C48.9543 48 40 39.0457 40 28V0Z"/>
</mask>
<path d="M39 -2H81L79 2H41L39 -2ZM81 29C81 40.598 71.598 50 60 50C48.402 50 39 40.598 39 29L41 28C41 37.9411 49.5066 46 60 46C70.4934 46 79 37.9411 79 28L81 29ZM60 50C48.402 50 39 40.598 39 29V-2L41 2V28C41 37.9411 49.5066 46 60 46V50ZM81 -2V29C81 40.598 71.598 50 60 50V46C70.4934 46 79 37.9411 79 28V2L81 -2Z" fill="#7BD6D0" mask="url(#path-3-inside-2_1806_1143)"/>
<mask id="path-5-inside-3_1806_1143" fill="white">
<path d="M80 0H120V28C120 39.0457 111.046 48 100 48V48C88.9543 48 80 39.0457 80 28V0Z"/>
</mask>
<path d="M79 -2H121L119 2H81L79 -2ZM121 29C121 40.598 111.598 50 100 50C88.402 50 79 40.598 79 29L81 28C81 37.9411 89.5066 46 100 46C110.493 46 119 37.9411 119 28L121 29ZM100 50C88.402 50 79 40.598 79 29V-2L81 2V28C81 37.9411 89.5066 46 100 46V50ZM121 -2V29C121 40.598 111.598 50 100 50V46C110.493 46 119 37.9411 119 28V2L121 -2Z" fill="#7BD6D0" mask="url(#path-5-inside-3_1806_1143)"/>
<mask id="path-7-inside-4_1806_1143" fill="white">
<path d="M120 0H160V28C160 39.0457 151.046 48 140 48V48C128.954 48 120 39.0457 120 28V0Z"/>
</mask>
<path d="M119 -2H161L159 2H121L119 -2ZM161 29C161 40.598 151.598 50 140 50C128.402 50 119 40.598 119 29L121 28C121 37.9411 129.507 46 140 46C150.493 46 159 37.9411 159 28L161 29ZM140 50C128.402 50 119 40.598 119 29V-2L121 2V28C121 37.9411 129.507 46 140 46V50ZM161 -2V29C161 40.598 151.598 50 140 50V46C150.493 46 159 37.9411 159 28V2L161 -2Z" fill="#7BD6D0" mask="url(#path-7-inside-4_1806_1143)"/>
<mask id="path-9-inside-5_1806_1143" fill="white">
<path d="M160 0H200V28C200 39.0457 191.046 48 180 48V48C168.954 48 160 39.0457 160 28V0Z"/>
</mask>
<path d="M159 -2H201L199 2H161L159 -2ZM201 29C201 40.598 191.598 50 180 50C168.402 50 159 40.598 159 29L161 28C161 37.9411 169.507 46 180 46C190.493 46 199 37.9411 199 28L201 29ZM180 50C168.402 50 159 40.598 159 29V-2L161 2V28C161 37.9411 169.507 46 180 46V50ZM201 -2V29C201 40.598 191.598 50 180 50V46C190.493 46 199 37.9411 199 28V2L201 -2Z" fill="#7BD6D0" mask="url(#path-9-inside-5_1806_1143)"/>
<mask id="path-11-inside-6_1806_1143" fill="white">
<path d="M200 0H240V28C240 39.0457 231.046 48 220 48V48C208.954 48 200 39.0457 200 28V0Z"/>
</mask>
<path d="M199 -2H241L239 2H201L199 -2ZM241 29C241 40.598 231.598 50 220 50C208.402 50 199 40.598 199 29L201 28C201 37.9411 209.507 46 220 46C230.493 46 239 37.9411 239 28L241 29ZM220 50C208.402 50 199 40.598 199 29V-2L201 2V28C201 37.9411 209.507 46 220 46V50ZM241 -2V29C241 40.598 231.598 50 220 50V46C230.493 46 239 37.9411 239 28V2L241 -2Z" fill="#7BD6D0" mask="url(#path-11-inside-6_1806_1143)"/>
<mask id="path-13-inside-7_1806_1143" fill="white">
<path d="M240 0H280V28C280 39.0457 271.046 48 260 48V48C248.954 48 240 39.0457 240 28V0Z"/>
</mask>
<path d="M239 -2H281L279 2H241L239 -2ZM281 29C281 40.598 271.598 50 260 50C248.402 50 239 40.598 239 29L241 28C241 37.9411 249.507 46 260 46C270.493 46 279 37.9411 279 28L281 29ZM260 50C248.402 50 239 40.598 239 29V-2L241 2V28C241 37.9411 249.507 46 260 46V50ZM281 -2V29C281 40.598 271.598 50 260 50V46C270.493 46 279 37.9411 279 28V2L281 -2Z" fill="#7BD6D0" mask="url(#path-13-inside-7_1806_1143)"/>
<mask id="path-15-inside-8_1806_1143" fill="white">
<path d="M280 0H320V28C320 39.0457 311.046 48 300 48V48C288.954 48 280 39.0457 280 28V0Z"/>
</mask>
<path d="M279 -2H321L319 2H281L279 -2ZM321 29C321 40.598 311.598 50 300 50C288.402 50 279 40.598 279 29L281 28C281 37.9411 289.507 46 300 46C310.493 46 319 37.9411 319 28L321 29ZM300 50C288.402 50 279 40.598 279 29V-2L281 2V28C281 37.9411 289.507 46 300 46V50ZM321 -2V29C321 40.598 311.598 50 300 50V46C310.493 46 319 37.9411 319 28V2L321 -2Z" fill="#7BD6D0" mask="url(#path-15-inside-8_1806_1143)"/>
<mask id="path-17-inside-9_1806_1143" fill="white">
<path d="M320 0H360V28C360 39.0457 351.046 48 340 48V48C328.954 48 320 39.0457 320 28V0Z"/>
</mask>
<path d="M319 -2H361L359 2H321L319 -2ZM361 29C361 40.598 351.598 50 340 50C328.402 50 319 40.598 319 29L321 28C321 37.9411 329.507 46 340 46C350.493 46 359 37.9411 359 28L361 29ZM340 50C328.402 50 319 40.598 319 29V-2L321 2V28C321 37.9411 329.507 46 340 46V50ZM361 -2V29C361 40.598 351.598 50 340 50V46C350.493 46 359 37.9411 359 28V2L361 -2Z" fill="#7BD6D0" mask="url(#path-17-inside-9_1806_1143)"/>
<mask id="path-19-inside-10_1806_1143" fill="white">
<path d="M360 0H400V28C400 39.0457 391.046 48 380 48V48C368.954 48 360 39.0457 360 28V0Z"/>
</mask>
<path d="M359 -2H401L399 2H361L359 -2ZM401 29C401 40.598 391.598 50 380 50C368.402 50 359 40.598 359 29L361 28C361 37.9411 369.507 46 380 46C390.493 46 399 37.9411 399 28L401 29ZM380 50C368.402 50 359 40.598 359 29V-2L361 2V28C361 37.9411 369.507 46 380 46V50ZM401 -2V29C401 40.598 391.598 50 380 50V46C390.493 46 399 37.9411 399 28V2L401 -2Z" fill="#7BD6D0" mask="url(#path-19-inside-10_1806_1143)"/>
<mask id="path-21-inside-11_1806_1143" fill="white">
<path d="M400 0H440V28C440 39.0457 431.046 48 420 48V48C408.954 48 400 39.0457 400 28V0Z"/>
</mask>
<path d="M399 -2H441L439 2H401L399 -2ZM441 29C441 40.598 431.598 50 420 50C408.402 50 399 40.598 399 29L401 28C401 37.9411 409.507 46 420 46C430.493 46 439 37.9411 439 28L441 29ZM420 50C408.402 50 399 40.598 399 29V-2L401 2V28C401 37.9411 409.507 46 420 46V50ZM441 -2V29C441 40.598 431.598 50 420 50V46C430.493 46 439 37.9411 439 28V2L441 -2Z" fill="#7BD6D0" mask="url(#path-21-inside-11_1806_1143)"/>
<mask id="path-23-inside-12_1806_1143" fill="white">
<path d="M440 0H480V28C480 39.0457 471.046 48 460 48V48C448.954 48 440 39.0457 440 28V0Z"/>
</mask>
<path d="M439 -2H481L479 2H441L439 -2ZM481 29C481 40.598 471.598 50 460 50C448.402 50 439 40.598 439 29L441 28C441 37.9411 449.507 46 460 46C470.493 46 479 37.9411 479 28L481 29ZM460 50C448.402 50 439 40.598 439 29V-2L441 2V28C441 37.9411 449.507 46 460 46V50ZM481 -2V29C481 40.598 471.598 50 460 50V46C470.493 46 479 37.9411 479 28V2L481 -2Z" fill="#7BD6D0" mask="url(#path-23-inside-12_1806_1143)"/>
<mask id="path-25-inside-13_1806_1143" fill="white">
<path d="M480 0H520V28C520 39.0457 511.046 48 500 48V48C488.954 48 480 39.0457 480 28V0Z"/>
</mask>
<path d="M479 -2H521L519 2H481L479 -2ZM521 29C521 40.598 511.598 50 500 50C488.402 50 479 40.598 479 29L481 28C481 37.9411 489.507 46 500 46C510.493 46 519 37.9411 519 28L521 29ZM500 50C488.402 50 479 40.598 479 29V-2L481 2V28C481 37.9411 489.507 46 500 46V50ZM521 -2V29C521 40.598 511.598 50 500 50V46C510.493 46 519 37.9411 519 28V2L521 -2Z" fill="#7BD6D0" mask="url(#path-25-inside-13_1806_1143)"/>
<mask id="path-27-inside-14_1806_1143" fill="white">
<path d="M520 0H560V28C560 39.0457 551.046 48 540 48V48C528.954 48 520 39.0457 520 28V0Z"/>
</mask>
<path d="M519 -2H561L559 2H521L519 -2ZM561 29C561 40.598 551.598 50 540 50C528.402 50 519 40.598 519 29L521 28C521 37.9411 529.507 46 540 46C550.493 46 559 37.9411 559 28L561 29ZM540 50C528.402 50 519 40.598 519 29V-2L521 2V28C521 37.9411 529.507 46 540 46V50ZM561 -2V29C561 40.598 551.598 50 540 50V46C550.493 46 559 37.9411 559 28V2L561 -2Z" fill="#7BD6D0" mask="url(#path-27-inside-14_1806_1143)"/>
<mask id="path-29-inside-15_1806_1143" fill="white">
<path d="M560 0H600V28C600 39.0457 591.046 48 580 48V48C568.954 48 560 39.0457 560 28V0Z"/>
</mask>
<path d="M559 -2H601L599 2H561L559 -2ZM601 29C601 40.598 591.598 50 580 50C568.402 50 559 40.598 559 29L561 28C561 37.9411 569.507 46 580 46C590.493 46 599 37.9411 599 28L601 29ZM580 50C568.402 50 559 40.598 559 29V-2L561 2V28C561 37.9411 569.507 46 580 46V50ZM601 -2V29C601 40.598 591.598 50 580 50V46C590.493 46 599 37.9411 599 28V2L601 -2Z" fill="#7BD6D0" mask="url(#path-29-inside-15_1806_1143)"/>
<mask id="path-31-inside-16_1806_1143" fill="white">
<path d="M600 0H640V28C640 39.0457 631.046 48 620 48V48C608.954 48 600 39.0457 600 28V0Z"/>
</mask>
<path d="M599 -2H641L639 2H601L599 -2ZM641 29C641 40.598 631.598 50 620 50C608.402 50 599 40.598 599 29L601 28C601 37.9411 609.507 46 620 46C630.493 46 639 37.9411 639 28L641 29ZM620 50C608.402 50 599 40.598 599 29V-2L601 2V28C601 37.9411 609.507 46 620 46V50ZM641 -2V29C641 40.598 631.598 50 620 50V46C630.493 46 639 37.9411 639 28V2L641 -2Z" fill="#7BD6D0" mask="url(#path-31-inside-16_1806_1143)"/>
<mask id="path-33-inside-17_1806_1143" fill="white">
<path d="M640 0H680V28C680 39.0457 671.046 48 660 48V48C648.954 48 640 39.0457 640 28V0Z"/>
</mask>
<path d="M639 -2H681L679 2H641L639 -2ZM681 29C681 40.598 671.598 50 660 50C648.402 50 639 40.598 639 29L641 28C641 37.9411 649.507 46 660 46C670.493 46 679 37.9411 679 28L681 29ZM660 50C648.402 50 639 40.598 639 29V-2L641 2V28C641 37.9411 649.507 46 660 46V50ZM681 -2V29C681 40.598 671.598 50 660 50V46C670.493 46 679 37.9411 679 28V2L681 -2Z" fill="#7BD6D0" mask="url(#path-33-inside-17_1806_1143)"/>
<mask id="path-35-inside-18_1806_1143" fill="white">
<path d="M680 0H720V28C720 39.0457 711.046 48 700 48V48C688.954 48 680 39.0457 680 28V0Z"/>
</mask>
<path d="M679 -2H721L719 2H681L679 -2ZM721 29C721 40.598 711.598 50 700 50C688.402 50 679 40.598 679 29L681 28C681 37.9411 689.507 46 700 46C710.493 46 719 37.9411 719 28L721 29ZM700 50C688.402 50 679 40.598 679 29V-2L681 2V28C681 37.9411 689.507 46 700 46V50ZM721 -2V29C721 40.598 711.598 50 700 50V46C710.493 46 719 37.9411 719 28V2L721 -2Z" fill="#7BD6D0" mask="url(#path-35-inside-18_1806_1143)"/>
<mask id="path-37-inside-19_1806_1143" fill="white">
<path d="M720 0H760V28C760 39.0457 751.046 48 740 48V48C728.954 48 720 39.0457 720 28V0Z"/>
</mask>
<path d="M719 -2H761L759 2H721L719 -2ZM761 29C761 40.598 751.598 50 740 50C728.402 50 719 40.598 719 29L721 28C721 37.9411 729.507 46 740 46C750.493 46 759 37.9411 759 28L761 29ZM740 50C728.402 50 719 40.598 719 29V-2L721 2V28C721 37.9411 729.507 46 740 46V50ZM761 -2V29C761 40.598 751.598 50 740 50V46C750.493 46 759 37.9411 759 28V2L761 -2Z" fill="#7BD6D0" mask="url(#path-37-inside-19_1806_1143)"/>
<mask id="path-39-inside-20_1806_1143" fill="white">
<path d="M760 0H800V28C800 39.0457 791.046 48 780 48V48C768.954 48 760 39.0457 760 28V0Z"/>
</mask>
<path d="M759 -2H801L799 2H761L759 -2ZM801 29C801 40.598 791.598 50 780 50C768.402 50 759 40.598 759 29L761 28C761 37.9411 769.507 46 780 46C790.493 46 799 37.9411 799 28L801 29ZM780 50C768.402 50 759 40.598 759 29V-2L761 2V28C761 37.9411 769.507 46 780 46V50ZM801 -2V29C801 40.598 791.598 50 780 50V46C790.493 46 799 37.9411 799 28V2L801 -2Z" fill="#7BD6D0" mask="url(#path-39-inside-20_1806_1143)"/>
<mask id="path-41-inside-21_1806_1143" fill="white">
<path d="M800 0H840V28C840 39.0457 831.046 48 820 48V48C808.954 48 800 39.0457 800 28V0Z"/>
</mask>
<path d="M799 -2H841L839 2H801L799 -2ZM841 29C841 40.598 831.598 50 820 50C808.402 50 799 40.598 799 29L801 28C801 37.9411 809.507 46 820 46C830.493 46 839 37.9411 839 28L841 29ZM820 50C808.402 50 799 40.598 799 29V-2L801 2V28C801 37.9411 809.507 46 820 46V50ZM841 -2V29C841 40.598 831.598 50 820 50V46C830.493 46 839 37.9411 839 28V2L841 -2Z" fill="#7BD6D0" mask="url(#path-41-inside-21_1806_1143)"/>
<mask id="path-43-inside-22_1806_1143" fill="white">
<path d="M840 0H880V28C880 39.0457 871.046 48 860 48V48C848.954 48 840 39.0457 840 28V0Z"/>
</mask>
<path d="M839 -2H881L879 2H841L839 -2ZM881 29C881 40.598 871.598 50 860 50C848.402 50 839 40.598 839 29L841 28C841 37.9411 849.507 46 860 46C870.493 46 879 37.9411 879 28L881 29ZM860 50C848.402 50 839 40.598 839 29V-2L841 2V28C841 37.9411 849.507 46 860 46V50ZM881 -2V29C881 40.598 871.598 50 860 50V46C870.493 46 879 37.9411 879 28V2L881 -2Z" fill="#7BD6D0" mask="url(#path-43-inside-22_1806_1143)"/>
<mask id="path-45-inside-23_1806_1143" fill="white">
<path d="M880 0H920V28C920 39.0457 911.046 48 900 48V48C888.954 48 880 39.0457 880 28V0Z"/>
</mask>
<path d="M879 -2H921L919 2H881L879 -2ZM921 29C921 40.598 911.598 50 900 50C888.402 50 879 40.598 879 29L881 28C881 37.9411 889.507 46 900 46C910.493 46 919 37.9411 919 28L921 29ZM900 50C888.402 50 879 40.598 879 29V-2L881 2V28C881 37.9411 889.507 46 900 46V50ZM921 -2V29C921 40.598 911.598 50 900 50V46C910.493 46 919 37.9411 919 28V2L921 -2Z" fill="#7BD6D0" mask="url(#path-45-inside-23_1806_1143)"/>
<mask id="path-47-inside-24_1806_1143" fill="white">
<path d="M920 0H960V28C960 39.0457 951.046 48 940 48V48C928.954 48 920 39.0457 920 28V0Z"/>
</mask>
<path d="M919 -2H961L959 2H921L919 -2ZM961 29C961 40.598 951.598 50 940 50C928.402 50 919 40.598 919 29L921 28C921 37.9411 929.507 46 940 46C950.493 46 959 37.9411 959 28L961 29ZM940 50C928.402 50 919 40.598 919 29V-2L921 2V28C921 37.9411 929.507 46 940 46V50ZM961 -2V29C961 40.598 951.598 50 940 50V46C950.493 46 959 37.9411 959 28V2L961 -2Z" fill="#7BD6D0" mask="url(#path-47-inside-24_1806_1143)"/>
<mask id="path-49-inside-25_1806_1143" fill="white">
<path d="M960 0H1000V28C1000 39.0457 991.046 48 980 48V48C968.954 48 960 39.0457 960 28V0Z"/>
</mask>
<path d="M959 -2H1001L999 2H961L959 -2ZM1001 29C1001 40.598 991.598 50 980 50C968.402 50 959 40.598 959 29L961 28C961 37.9411 969.507 46 980 46C990.493 46 999 37.9411 999 28L1001 29ZM980 50C968.402 50 959 40.598 959 29V-2L961 2V28C961 37.9411 969.507 46 980 46V50ZM1001 -2V29C1001 40.598 991.598 50 980 50V46C990.493 46 999 37.9411 999 28V2L1001 -2Z" fill="#7BD6D0" mask="url(#path-49-inside-25_1806_1143)"/>
<mask id="path-51-inside-26_1806_1143" fill="white">
<path d="M1000 0H1040V28C1040 39.0457 1031.05 48 1020 48V48C1008.95 48 1000 39.0457 1000 28V0Z"/>
</mask>
<path d="M999 -2H1041L1039 2H1001L999 -2ZM1041 29C1041 40.598 1031.6 50 1020 50C1008.4 50 999 40.598 999 29L1001 28C1001 37.9411 1009.51 46 1020 46C1030.49 46 1039 37.9411 1039 28L1041 29ZM1020 50C1008.4 50 999 40.598 999 29V-2L1001 2V28C1001 37.9411 1009.51 46 1020 46V50ZM1041 -2V29C1041 40.598 1031.6 50 1020 50V46C1030.49 46 1039 37.9411 1039 28V2L1041 -2Z" fill="#7BD6D0" mask="url(#path-51-inside-26_1806_1143)"/>
<mask id="path-53-inside-27_1806_1143" fill="white">
<path d="M1040 0H1080V28C1080 39.0457 1071.05 48 1060 48V48C1048.95 48 1040 39.0457 1040 28V0Z"/>
</mask>
<path d="M1039 -2H1081L1079 2H1041L1039 -2ZM1081 29C1081 40.598 1071.6 50 1060 50C1048.4 50 1039 40.598 1039 29L1041 28C1041 37.9411 1049.51 46 1060 46C1070.49 46 1079 37.9411 1079 28L1081 29ZM1060 50C1048.4 50 1039 40.598 1039 29V-2L1041 2V28C1041 37.9411 1049.51 46 1060 46V50ZM1081 -2V29C1081 40.598 1071.6 50 1060 50V46C1070.49 46 1079 37.9411 1079 28V2L1081 -2Z" fill="#7BD6D0" mask="url(#path-53-inside-27_1806_1143)"/>
<mask id="path-55-inside-28_1806_1143" fill="white">
<path d="M1080 0H1120V28C1120 39.0457 1111.05 48 1100 48V48C1088.95 48 1080 39.0457 1080 28V0Z"/>
</mask>
<path d="M1079 -2H1121L1119 2H1081L1079 -2ZM1121 29C1121 40.598 1111.6 50 1100 50C1088.4 50 1079 40.598 1079 29L1081 28C1081 37.9411 1089.51 46 1100 46C1110.49 46 1119 37.9411 1119 28L1121 29ZM1100 50C1088.4 50 1079 40.598 1079 29V-2L1081 2V28C1081 37.9411 1089.51 46 1100 46V50ZM1121 -2V29C1121 40.598 1111.6 50 1100 50V46C1110.49 46 1119 37.9411 1119 28V2L1121 -2Z" fill="#7BD6D0" mask="url(#path-55-inside-28_1806_1143)"/>
<mask id="path-57-inside-29_1806_1143" fill="white">
<path d="M1120 0H1160V28C1160 39.0457 1151.05 48 1140 48V48C1128.95 48 1120 39.0457 1120 28V0Z"/>
</mask>
<path d="M1119 -2H1161L1159 2H1121L1119 -2ZM1161 29C1161 40.598 1151.6 50 1140 50C1128.4 50 1119 40.598 1119 29L1121 28C1121 37.9411 1129.51 46 1140 46C1150.49 46 1159 37.9411 1159 28L1161 29ZM1140 50C1128.4 50 1119 40.598 1119 29V-2L1121 2V28C1121 37.9411 1129.51 46 1140 46V50ZM1161 -2V29C1161 40.598 1151.6 50 1140 50V46C1150.49 46 1159 37.9411 1159 28V2L1161 -2Z" fill="#7BD6D0" mask="url(#path-57-inside-29_1806_1143)"/>
<mask id="path-59-inside-30_1806_1143" fill="white">
<path d="M1160 0H1200V28C1200 39.0457 1191.05 48 1180 48V48C1168.95 48 1160 39.0457 1160 28V0Z"/>
</mask>
<path d="M1159 -2H1201L1199 2H1161L1159 -2ZM1201 29C1201 40.598 1191.6 50 1180 50C1168.4 50 1159 40.598 1159 29L1161 28C1161 37.9411 1169.51 46 1180 46C1190.49 46 1199 37.9411 1199 28L1201 29ZM1180 50C1168.4 50 1159 40.598 1159 29V-2L1161 2V28C1161 37.9411 1169.51 46 1180 46V50ZM1201 -2V29C1201 40.598 1191.6 50 1180 50V46C1190.49 46 1199 37.9411 1199 28V2L1201 -2Z" fill="#7BD6D0" mask="url(#path-59-inside-30_1806_1143)"/>
<mask id="path-61-inside-31_1806_1143" fill="white">
<path d="M1200 0H1240V28C1240 39.0457 1231.05 48 1220 48V48C1208.95 48 1200 39.0457 1200 28V0Z"/>
</mask>
<path d="M1199 -2H1241L1239 2H1201L1199 -2ZM1241 29C1241 40.598 1231.6 50 1220 50C1208.4 50 1199 40.598 1199 29L1201 28C1201 37.9411 1209.51 46 1220 46C1230.49 46 1239 37.9411 1239 28L1241 29ZM1220 50C1208.4 50 1199 40.598 1199 29V-2L1201 2V28C1201 37.9411 1209.51 46 1220 46V50ZM1241 -2V29C1241 40.598 1231.6 50 1220 50V46C1230.49 46 1239 37.9411 1239 28V2L1241 -2Z" fill="#7BD6D0" mask="url(#path-61-inside-31_1806_1143)"/>
<mask id="path-63-inside-32_1806_1143" fill="white">
<path d="M1240 0H1280V28C1280 39.0457 1271.05 48 1260 48V48C1248.95 48 1240 39.0457 1240 28V0Z"/>
</mask>
<path d="M1239 -2H1281L1279 2H1241L1239 -2ZM1281 29C1281 40.598 1271.6 50 1260 50C1248.4 50 1239 40.598 1239 29L1241 28C1241 37.9411 1249.51 46 1260 46C1270.49 46 1279 37.9411 1279 28L1281 29ZM1260 50C1248.4 50 1239 40.598 1239 29V-2L1241 2V28C1241 37.9411 1249.51 46 1260 46V50ZM1281 -2V29C1281 40.598 1271.6 50 1260 50V46C1270.49 46 1279 37.9411 1279 28V2L1281 -2Z" fill="#7BD6D0" mask="url(#path-63-inside-32_1806_1143)"/>
<mask id="path-65-inside-33_1806_1143" fill="white">
<path d="M1280 0H1320V28C1320 39.0457 1311.05 48 1300 48V48C1288.95 48 1280 39.0457 1280 28V0Z"/>
</mask>
<path d="M1279 -2H1321L1319 2H1281L1279 -2ZM1321 29C1321 40.598 1311.6 50 1300 50C1288.4 50 1279 40.598 1279 29L1281 28C1281 37.9411 1289.51 46 1300 46C1310.49 46 1319 37.9411 1319 28L1321 29ZM1300 50C1288.4 50 1279 40.598 1279 29V-2L1281 2V28C1281 37.9411 1289.51 46 1300 46V50ZM1321 -2V29C1321 40.598 1311.6 50 1300 50V46C1310.49 46 1319 37.9411 1319 28V2L1321 -2Z" fill="#7BD6D0" mask="url(#path-65-inside-33_1806_1143)"/>
<mask id="path-67-inside-34_1806_1143" fill="white">
<path d="M1320 0H1360V28C1360 39.0457 1351.05 48 1340 48V48C1328.95 48 1320 39.0457 1320 28V0Z"/>
</mask>
<path d="M1319 -2H1361L1359 2H1321L1319 -2ZM1361 29C1361 40.598 1351.6 50 1340 50C1328.4 50 1319 40.598 1319 29L1321 28C1321 37.9411 1329.51 46 1340 46C1350.49 46 1359 37.9411 1359 28L1361 29ZM1340 50C1328.4 50 1319 40.598 1319 29V-2L1321 2V28C1321 37.9411 1329.51 46 1340 46V50ZM1361 -2V29C1361 40.598 1351.6 50 1340 50V46C1350.49 46 1359 37.9411 1359 28V2L1361 -2Z" fill="#7BD6D0" mask="url(#path-67-inside-34_1806_1143)"/>
<mask id="path-69-inside-35_1806_1143" fill="white">
<path d="M1360 0H1400V28C1400 39.0457 1391.05 48 1380 48V48C1368.95 48 1360 39.0457 1360 28V0Z"/>
</mask>
<path d="M1359 -2H1401L1399 2H1361L1359 -2ZM1401 29C1401 40.598 1391.6 50 1380 50C1368.4 50 1359 40.598 1359 29L1361 28C1361 37.9411 1369.51 46 1380 46C1390.49 46 1399 37.9411 1399 28L1401 29ZM1380 50C1368.4 50 1359 40.598 1359 29V-2L1361 2V28C1361 37.9411 1369.51 46 1380 46V50ZM1401 -2V29C1401 40.598 1391.6 50 1380 50V46C1390.49 46 1399 37.9411 1399 28V2L1401 -2Z" fill="#7BD6D0" mask="url(#path-69-inside-35_1806_1143)"/>
<mask id="path-71-inside-36_1806_1143" fill="white">
<path d="M1400 0H1440V28C1440 39.0457 1431.05 48 1420 48V48C1408.95 48 1400 39.0457 1400 28V0Z"/>
</mask>
<path d="M1399 -2H1441L1439 2H1401L1399 -2ZM1441 29C1441 40.598 1431.6 50 1420 50C1408.4 50 1399 40.598 1399 29L1401 28C1401 37.9411 1409.51 46 1420 46C1430.49 46 1439 37.9411 1439 28L1441 29ZM1420 50C1408.4 50 1399 40.598 1399 29V-2L1401 2V28C1401 37.9411 1409.51 46 1420 46V50ZM1441 -2V29C1441 40.598 1431.6 50 1420 50V46C1430.49 46 1439 37.9411 1439 28V2L1441 -2Z" fill="#7BD6D0" mask="url(#path-71-inside-36_1806_1143)"/>
<mask id="path-73-inside-37_1806_1143" fill="white">
<path d="M1440 0H1480V28C1480 39.0457 1471.05 48 1460 48V48C1448.95 48 1440 39.0457 1440 28V0Z"/>
</mask>
<path d="M1439 -2H1481L1479 2H1441L1439 -2ZM1481 29C1481 40.598 1471.6 50 1460 50C1448.4 50 1439 40.598 1439 29L1441 28C1441 37.9411 1449.51 46 1460 46C1470.49 46 1479 37.9411 1479 28L1481 29ZM1460 50C1448.4 50 1439 40.598 1439 29V-2L1441 2V28C1441 37.9411 1449.51 46 1460 46V50ZM1481 -2V29C1481 40.598 1471.6 50 1460 50V46C1470.49 46 1479 37.9411 1479 28V2L1481 -2Z" fill="#7BD6D0" mask="url(#path-73-inside-37_1806_1143)"/>
<mask id="path-75-inside-38_1806_1143" fill="white">
<path d="M1480 0H1520V28C1520 39.0457 1511.05 48 1500 48V48C1488.95 48 1480 39.0457 1480 28V0Z"/>
</mask>
<path d="M1479 -2H1521L1519 2H1481L1479 -2ZM1521 29C1521 40.598 1511.6 50 1500 50C1488.4 50 1479 40.598 1479 29L1481 28C1481 37.9411 1489.51 46 1500 46C1510.49 46 1519 37.9411 1519 28L1521 29ZM1500 50C1488.4 50 1479 40.598 1479 29V-2L1481 2V28C1481 37.9411 1489.51 46 1500 46V50ZM1521 -2V29C1521 40.598 1511.6 50 1500 50V46C1510.49 46 1519 37.9411 1519 28V2L1521 -2Z" fill="#7BD6D0" mask="url(#path-75-inside-38_1806_1143)"/>
<mask id="path-77-inside-39_1806_1143" fill="white">
<path d="M1520 0H1560V28C1560 39.0457 1551.05 48 1540 48V48C1528.95 48 1520 39.0457 1520 28V0Z"/>
</mask>
<path d="M1519 -2H1561L1559 2H1521L1519 -2ZM1561 29C1561 40.598 1551.6 50 1540 50C1528.4 50 1519 40.598 1519 29L1521 28C1521 37.9411 1529.51 46 1540 46C1550.49 46 1559 37.9411 1559 28L1561 29ZM1540 50C1528.4 50 1519 40.598 1519 29V-2L1521 2V28C1521 37.9411 1529.51 46 1540 46V50ZM1561 -2V29C1561 40.598 1551.6 50 1540 50V46C1550.49 46 1559 37.9411 1559 28V2L1561 -2Z" fill="#7BD6D0" mask="url(#path-77-inside-39_1806_1143)"/>
<mask id="path-79-inside-40_1806_1143" fill="white">
<path d="M1560 0H1600V28C1600 39.0457 1591.05 48 1580 48V48C1568.95 48 1560 39.0457 1560 28V0Z"/>
</mask>
<path d="M1559 -2H1601L1599 2H1561L1559 -2ZM1601 29C1601 40.598 1591.6 50 1580 50C1568.4 50 1559 40.598 1559 29L1561 28C1561 37.9411 1569.51 46 1580 46C1590.49 46 1599 37.9411 1599 28L1601 29ZM1580 50C1568.4 50 1559 40.598 1559 29V-2L1561 2V28C1561 37.9411 1569.51 46 1580 46V50ZM1601 -2V29C1601 40.598 1591.6 50 1580 50V46C1590.49 46 1599 37.9411 1599 28V2L1601 -2Z" fill="#7BD6D0" mask="url(#path-79-inside-40_1806_1143)"/>
<mask id="path-81-inside-41_1806_1143" fill="white">
<path d="M1600 0H1640V28C1640 39.0457 1631.05 48 1620 48V48C1608.95 48 1600 39.0457 1600 28V0Z"/>
</mask>
<path d="M1599 -2H1641L1639 2H1601L1599 -2ZM1641 29C1641 40.598 1631.6 50 1620 50C1608.4 50 1599 40.598 1599 29L1601 28C1601 37.9411 1609.51 46 1620 46C1630.49 46 1639 37.9411 1639 28L1641 29ZM1620 50C1608.4 50 1599 40.598 1599 29V-2L1601 2V28C1601 37.9411 1609.51 46 1620 46V50ZM1641 -2V29C1641 40.598 1631.6 50 1620 50V46C1630.49 46 1639 37.9411 1639 28V2L1641 -2Z" fill="#7BD6D0" mask="url(#path-81-inside-41_1806_1143)"/>
<mask id="path-83-inside-42_1806_1143" fill="white">
<path d="M1640 0H1680V28C1680 39.0457 1671.05 48 1660 48V48C1648.95 48 1640 39.0457 1640 28V0Z"/>
</mask>
<path d="M1639 -2H1681L1679 2H1641L1639 -2ZM1681 29C1681 40.598 1671.6 50 1660 50C1648.4 50 1639 40.598 1639 29L1641 28C1641 37.9411 1649.51 46 1660 46C1670.49 46 1679 37.9411 1679 28L1681 29ZM1660 50C1648.4 50 1639 40.598 1639 29V-2L1641 2V28C1641 37.9411 1649.51 46 1660 46V50ZM1681 -2V29C1681 40.598 1671.6 50 1660 50V46C1670.49 46 1679 37.9411 1679 28V2L1681 -2Z" fill="#7BD6D0" mask="url(#path-83-inside-42_1806_1143)"/>
</g>
<defs>
<clipPath id="clip0_1806_1143">
<rect width="1680" height="48" fill="white"/>
</clipPath>
</defs>
</svg>
