
<svg version="1.0" xmlns="http://www.w3.org/2000/svg"
 width="512.000000pt" height="512.000000pt" viewBox="0 0 512.000000 512.000000"
 preserveAspectRatio="xMidYMid meet">

<g transform="translate(0.000000,512.000000) scale(0.100000,-0.100000)"
fill="#3390EC" stroke="none">
<path d="M377 5100 c-17 -13 -32 -44 -47 -92 -19 -62 -30 -80 -84 -134 -54
-54 -72 -65 -134 -84 -99 -30 -132 -74 -100 -133 16 -30 37 -44 78 -52 88 -17
179 -91 222 -180 15 -33 28 -68 28 -77 0 -9 12 -30 26 -47 19 -23 34 -31 58
-31 49 0 74 24 92 88 34 123 123 212 246 246 64 18 88 43 88 91 0 41 -30 71
-82 86 -131 35 -215 117 -254 250 -24 80 -84 111 -137 69z m109 -348 l59 -58
-59 -60 -60 -59 -58 59 -58 59 58 58 c31 32 57 59 58 59 0 0 27 -26 60 -58z"/>
<path d="M2470 4950 l0 -170 90 0 90 0 0 170 0 170 -90 0 -90 0 0 -170z"/>
<path d="M1288 4782 c-37 -21 -70 -41 -74 -44 -5 -5 138 -267 161 -296 3 -4
145 79 145 84 0 4 -156 280 -164 291 -1 1 -32 -15 -68 -35z"/>
<path d="M3683 4675 c-46 -78 -83 -145 -83 -148 0 -6 141 -90 144 -85 27 32
166 291 160 297 -5 5 -38 24 -74 44 l-65 36 -82 -144z"/>
<path d="M1700 4344 c-272 -53 -484 -210 -594 -439 -69 -142 -88 -266 -75
-476 20 -317 84 -548 249 -889 l90 -185 74 -672 c84 -753 81 -739 172 -823 70
-65 123 -85 224 -85 100 0 154 20 223 84 83 77 85 85 192 801 107 718 109 726
188 778 35 23 51 27 117 27 66 0 82 -4 117 -27 79 -52 81 -60 188 -778 104
-698 106 -707 180 -788 20 -23 62 -54 93 -69 50 -24 69 -28 147 -28 78 0 97 4
140 27 62 32 130 104 157 164 15 36 35 185 94 717 l74 672 90 185 c98 203 147
329 185 478 70 274 88 581 44 747 -43 160 -150 318 -283 419 -141 107 -273
154 -451 163 -131 6 -204 -7 -362 -65 -281 -104 -520 -107 -793 -11 -63 22
-137 47 -165 55 -49 15 -266 27 -315 18z m390 -222 c182 -63 273 -82 425 -89
185 -8 331 20 570 107 83 31 100 34 210 34 98 1 133 -3 190 -21 204 -65 367
-236 420 -442 19 -74 21 -255 5 -390 -30 -238 -93 -436 -234 -730 l-94 -196
-72 -658 c-39 -362 -76 -672 -81 -689 -35 -122 -204 -146 -275 -38 -22 33 -35
105 -119 671 -53 353 -104 663 -115 698 -27 85 -77 151 -150 199 -73 49 -139
66 -240 60 -180 -10 -315 -138 -349 -328 -6 -36 -52 -334 -101 -662 -52 -347
-95 -610 -104 -627 -32 -61 -98 -90 -173 -76 -51 9 -109 70 -118 123 -3 21
-39 333 -79 693 l-74 654 -95 195 c-107 221 -154 345 -191 510 -49 223 -62
469 -31 590 57 220 227 391 447 450 58 16 95 19 178 16 94 -4 120 -9 250 -54z"/>
<path d="M1566 3917 c-76 -76 -132 -163 -167 -263 -16 -44 -23 -92 -26 -191
l-6 -133 87 0 86 0 0 99 c0 164 49 281 161 382 l51 46 -43 66 c-24 37 -50 67
-57 67 -7 0 -46 -33 -86 -73z"/>
<path d="M341 3838 c-22 -40 -39 -73 -38 -74 20 -13 286 -164 290 -164 6 0 90
141 85 144 -10 9 -286 166 -291 166 -3 0 -24 -33 -46 -72z"/>
<path d="M4585 3828 c-77 -44 -141 -82 -143 -83 -4 -3 79 -145 85 -145 4 0 70
37 149 83 l143 82 -39 70 c-21 38 -42 71 -47 72 -4 1 -71 -34 -148 -79z"/>
<path d="M0 2560 l0 -90 170 0 170 0 0 90 0 90 -170 0 -170 0 0 -90z"/>
<path d="M4780 2560 l0 -90 170 0 170 0 0 90 0 90 -170 0 -170 0 0 -90z"/>
<path d="M443 1437 l-142 -82 36 -65 c20 -36 39 -69 44 -74 6 -6 269 134 297
159 5 4 -79 145 -86 144 -4 0 -71 -37 -149 -82z"/>
<path d="M4480 1449 c-23 -39 -40 -72 -38 -73 32 -27 292 -166 297 -160 5 5
24 38 44 74 l36 65 -144 83 c-78 45 -145 82 -148 82 -3 0 -24 -32 -47 -71z"/>
<path d="M1291 534 c-46 -80 -79 -149 -75 -154 5 -4 38 -23 74 -43 l65 -36 83
144 c45 78 82 145 82 148 0 4 -135 87 -142 87 -2 0 -41 -66 -87 -146z"/>
<path d="M3672 641 c-34 -21 -65 -41 -68 -44 -3 -3 32 -71 78 -151 l83 -145
56 31 c103 57 102 38 8 202 -46 80 -86 146 -89 145 -3 0 -33 -17 -68 -38z"/>
<path d="M2470 170 l0 -170 90 0 90 0 0 170 0 170 -90 0 -90 0 0 -170z"/>
</g>
</svg>
