<svg width="20" height="12" viewBox="0 0 20 12" fill="none" xmlns="http://www.w3.org/2000/svg">
<path d="M7.21735 2.45C7.19235 2.288 7.14935 2.223 7.02635 2.187L6.84735 2.148C6.49035 2.06 6.22535 1.872 6.16035 1.438C6.10835 1.09 6.21235 0.91 6.43535 0.655C6.82135 0.216 7.22335 0 7.82535 0H10.8724L11.0134 0.013C11.8104 0.166 12.1544 0.611 12.2674 1.417L12.2744 1.52L12.2764 4.565C12.6964 4.078 13.0664 3.503 13.4624 2.749L13.6824 2.316L13.8224 2.018C13.8704 1.913 13.9194 1.8 13.9724 1.678L14.1424 1.268C14.3884 0.665 14.8724 0.332 15.5254 0.344L18.5654 0.348C18.6654 0.35 18.7463 0.357 18.8393 0.372C19.7813 0.528 20.2034 1.192 19.9064 2.102C19.7164 2.686 19.4774 3.11 18.9854 3.798L18.6894 4.201L18.3364 4.669L17.4164 5.857L17.1343 6.234C16.9184 6.527 16.9064 6.408 17.1904 6.678L18.0284 7.456C18.3924 7.796 18.6334 8.034 18.8614 8.285L19.0564 8.506C19.3864 8.892 19.6124 9.201 19.7984 9.551C20.2804 10.46 19.8074 11.601 18.7254 11.669L16.0904 11.665C15.2034 11.737 14.4344 11.415 13.7854 10.772L13.5854 10.571C13.5194 10.503 13.4504 10.431 13.3714 10.346L12.8004 9.728L12.6004 9.518C12.5516 9.46854 12.5002 9.4218 12.4464 9.378C12.3764 9.57109 12.3366 9.7738 12.3284 9.979L12.3054 10.317C12.2094 11.208 11.7054 11.624 10.7454 11.667C9.14235 11.74 7.74835 11.467 6.48835 10.767C5.41335 10.169 4.51635 9.331 3.65935 8.203C2.37135 6.506 1.30235 4.614 0.159351 2.146C-0.285649 1.181 0.235351 0.373 1.29935 0.356C2.18694 0.33976 3.07474 0.339093 3.96235 0.354C4.62135 0.364 5.12135 0.741 5.37635 1.347C5.79235 2.342 6.27435 3.246 6.83435 4.069L7.07935 4.417L7.25335 4.647L7.28035 4.293C7.32654 3.67821 7.30542 3.0602 7.21735 2.45ZM8.44535 1.5C8.57235 1.71 8.65835 1.952 8.69935 2.222C8.82235 3.015 8.83135 3.835 8.74935 4.774C8.71735 5.114 8.65535 5.403 8.53435 5.68C8.20035 6.45 7.43235 6.67 6.73335 6.205C6.39935 5.983 6.20035 5.758 5.86635 5.3C5.2083 4.38985 4.64693 3.41357 4.19135 2.387L3.96135 1.857L3.95335 1.854L3.16835 1.845H2.16735C2.00401 1.84609 1.84068 1.84775 1.67735 1.85C2.71935 4.064 3.69835 5.773 4.85435 7.296C5.59435 8.27 6.34235 8.969 7.21735 9.456C8.21535 10.01 9.33535 10.229 10.6774 10.168C10.9474 10.156 10.8094 10.283 10.8194 10.073C10.8513 9.423 10.9434 8.973 11.1994 8.519C11.6224 7.769 12.4234 7.582 13.1504 8.041C13.3204 8.148 13.4684 8.268 13.6234 8.419L13.7824 8.581L14.5444 9.403L14.8414 9.706C15.1954 10.056 15.5464 10.204 16.0304 10.167L18.4254 10.17C18.2771 9.9258 18.1071 9.69552 17.9174 9.482C17.6697 9.1965 17.4063 8.92508 17.1284 8.669L16.1583 7.766C15.3303 6.982 15.2554 6.253 15.9254 5.345L16.1424 5.053L17.2894 3.568L17.7404 2.958L17.9714 2.627C18.1429 2.38323 18.2877 2.12173 18.4034 1.847L15.5274 1.844L15.3464 2.28C15.2614 2.479 15.1844 2.652 15.1063 2.816L14.9503 3.136C14.3553 4.313 13.8124 5.152 13.1024 5.884L12.9424 6.044C12.5884 6.378 12.2364 6.526 11.7044 6.357C11.0864 6.137 10.8014 5.491 10.7774 4.937L10.7754 1.5H8.44535Z" fill="#3390EC"/>
</svg>
